<svg width="114" height="47" viewBox="0 0 114 47" fill="none" xmlns="http://www.w3.org/2000/svg">
<path d="M110.889 41.8431C115.312 42.7417 111.693 6.0017 110.989 3.60561C108.979 -2.98362 84.1469 1.50904 78.6176 1.90839C65.8498 2.90675 53.2831 0.910017 40.8169 1.50904C34.5838 1.80855 5.73056 -0.288025 3.11668 3.50578C-1.91001 10.694 0.402269 29.2637 1.80974 38.5485C-2.21161 39.3472 4.12202 42.7417 4.92629 43.4405C11.2599 45.6369 21.4138 43.2409 28.0491 43.8399C43.5313 45.3374 60.0188 41.6435 75.6016 42.8415C80.1256 43.9397 85.2528 43.8399 89.8774 44.0395C93.396 49.6304 109.683 41.6435 110.889 41.8431C110.788 41.8431 111.392 41.943 110.889 41.8431Z" fill="black"/>
<path d="M26.2395 24.3725C26.139 21.8766 25.7368 19.2808 25.7368 16.7849C25.7368 14.6884 26.139 12.5918 25.4352 10.595C25.4352 10.3954 25.5358 10.1957 25.5358 9.89618C25.7368 8.89781 22.4192 9.397 21.9165 10.2955C21.6149 10.595 21.4139 10.8946 21.5144 11.1941C21.5144 11.2939 21.6149 11.3937 21.6149 11.3937C21.0117 14.3888 20.1069 17.3839 19.1016 20.2792C18.6995 21.3774 18.2973 22.4756 17.8952 23.6737C17.292 22.6753 16.7893 21.5771 16.2866 20.4789C14.9797 17.1843 13.7733 13.8897 12.1648 10.7947C12.3658 9.29716 9.14875 9.49684 8.44501 10.7947C7.64074 12.3921 7.74127 13.9895 8.04287 15.6867C8.34448 17.5836 8.34448 19.4805 8.44501 21.4773C8.44501 25.2711 8.74661 28.965 8.84714 32.7588C8.54554 33.1582 8.44501 33.5575 8.74661 34.0567C8.94768 34.2564 9.04821 34.4561 9.24928 34.5559C10.1541 35.2547 12.5669 34.6557 12.5669 33.3578C12.5669 29.4642 12.2653 25.5706 12.1648 21.6769C12.1648 21.2776 12.1648 20.8782 12.1648 20.5787C12.2653 20.6786 12.2653 20.8782 12.3658 20.9781C12.969 22.4756 13.5722 23.9732 14.477 25.3709C15.2813 26.7686 15.6834 28.2662 16.1861 29.7637C15.985 29.9634 15.8845 30.1631 15.985 30.4626C15.985 30.6623 16.0856 30.7621 16.1861 30.7621C16.7893 31.2613 17.8952 31.0616 18.5989 30.7621C18.9005 30.6623 19.1016 30.5624 19.4032 30.3627C19.7048 30.1631 20.2075 29.7637 20.1069 29.2645C20.1069 29.1647 20.0064 29.0649 20.0064 28.965C20.4085 27.767 20.7101 26.4691 20.9112 25.2711C21.2128 23.8733 21.6149 22.6753 22.1176 21.3774C22.1176 21.9764 22.2181 22.5755 22.2181 23.1745C22.4192 25.5706 22.2181 27.9667 22.2181 30.3627C22.2181 31.1614 22.3187 31.8603 22.4192 32.659C22.5197 32.9585 22.7208 34.3562 22.7208 34.4561C22.1176 34.9552 22.3187 35.6541 23.1229 35.8538C24.0278 36.0534 25.1336 35.7539 25.7368 35.1549C26.8427 34.1565 26.34 32.4593 26.0384 31.1614C25.7368 29.1647 26.34 26.6688 26.2395 24.3725Z" fill="white"/>
<path d="M34.1817 25.0714C34.0811 23.1745 33.4779 21.3774 33.4779 19.4805C33.4779 17.2841 33.679 15.0877 33.3774 12.9911C33.2769 12.2923 29.5571 13.091 29.6576 13.9895C29.9592 15.9862 29.8587 17.983 29.8587 19.9797C29.8587 21.8766 30.2608 23.6737 30.5624 25.5706C30.864 27.5673 30.4619 29.4642 30.663 31.4609C30.7635 32.3595 31.3667 34.0567 30.7635 34.8554C30.3614 35.3546 32.171 35.1549 32.2715 35.1549C32.9753 35.0551 33.9806 34.7556 34.4833 34.1565C35.0865 33.3578 34.6843 31.8603 34.5838 30.9618C34.0811 29.0649 34.2822 26.9683 34.1817 25.0714Z" fill="white"/>
<path d="M49.7644 21.8766C47.7537 19.2809 44.1345 21.1778 41.6212 20.3791C40.3142 19.9797 40.3142 18.1826 40.3142 17.1843C40.3142 15.7866 40.2137 14.5885 40.0126 13.2906C39.9121 12.2923 40.0126 11.2939 40.7164 10.4952C40.8169 10.3954 41.5206 10.1957 41.5206 10.1957C41.8222 10.0959 42.1238 10.0959 42.526 10.0959C44.034 9.99602 46.9494 10.2955 46.3462 12.4919C46.0446 13.4903 49.7644 12.8913 50.066 11.8929C51.2724 7.5001 43.1292 8.39863 40.8169 8.99765C38.7057 9.59667 36.3934 10.7947 36.2929 13.1908C36.1923 14.3888 36.5945 15.487 36.5945 16.5853C36.695 17.8831 36.3934 19.181 36.8961 20.4789C37.9014 23.2743 42.1238 21.9764 44.3356 22.1761C47.9548 22.4756 46.9495 27.3676 46.9495 29.6639C46.9495 30.8619 48.0553 32.9585 47.1505 33.9569C46.5473 34.5559 45.2404 34.6557 44.5366 34.6557C43.7324 34.7556 42.4254 34.9552 41.9228 34.2564C41.018 32.9585 42.0233 30.6623 41.8222 29.1647C41.7217 28.2662 37.9014 29.0649 38.1025 30.1631C38.4041 32.659 36.7955 35.9536 40.4148 36.4528C42.727 36.7523 45.3409 36.2531 47.5527 35.5543C48.6585 35.1549 49.7644 34.6557 50.6692 33.857C51.6745 32.9585 51.3729 31.6606 51.0713 30.4626C50.2671 27.4675 51.574 24.2727 49.7644 21.8766Z" fill="white"/>
<path d="M66.3525 21.6769C66.252 18.0828 65.6488 14.5885 65.6488 10.9944C65.6488 9.09749 61.8285 9.79634 61.8285 11.2939C61.8285 14.6884 62.3311 18.0828 62.4317 21.4773C62.4317 21.5771 62.4317 21.5771 62.4317 21.6769C60.6221 21.6769 58.7119 21.8766 56.8018 21.8766C57.0028 17.4838 56.1986 13.091 56.3996 8.79797C56.3996 8.19895 52.6799 8.69814 52.6799 9.79634C52.4788 13.9895 53.2831 18.2825 53.082 22.4756C52.9815 24.4724 52.881 26.4691 52.881 28.5657C52.881 29.564 53.082 30.6623 53.1826 31.6606C53.2831 32.5592 53.6852 33.857 53.3836 34.7556C53.1826 35.4544 56.8018 35.0551 57.1034 34.0567C57.606 32.3595 56.9023 30.2629 56.7012 28.5657C56.5002 26.9683 56.7012 25.2711 56.8018 23.5738C58.7119 23.474 60.7226 23.2743 62.6327 23.5738C62.7333 24.8717 62.8338 26.1696 62.9343 27.4675C63.0349 28.5657 63.1354 29.6639 63.1354 30.7621C63.1354 31.7605 63.2359 33.1582 62.9343 34.0567C62.2306 36.0534 65.9503 35.8538 66.453 34.3562C67.1568 32.5592 66.9557 30.3627 66.8552 28.5657C66.7546 26.3693 66.3525 23.9732 66.3525 21.6769Z" fill="white"/>
<path d="M82.4379 25.9682C81.5331 23.3724 80.1256 21.0762 79.0198 18.5803C80.0251 16.6834 80.9299 14.8863 81.8347 12.9894C82.639 11.2922 83.2422 9.39528 84.7502 8.19724C85.2529 7.79789 85.2529 7.39854 84.5491 7.2987C83.7448 7.19887 82.5384 7.49838 81.9352 7.99756C80.5278 9.09577 79.623 10.3936 78.9192 12.0909C78.0144 13.9878 77.1096 15.9845 76.1043 17.8814C76.0038 17.9813 76.0037 18.1809 75.9032 18.2808C75.4005 18.5803 75.1995 18.9796 75.3 19.4788C74.4957 20.9764 73.792 22.4739 72.8872 23.8716C72.5856 18.5803 71.9824 13.3888 71.7813 8.0974C71.7813 6.89936 67.961 7.59822 68.0616 9.09577C68.2626 15.5852 69.268 22.0746 69.268 28.564C68.9664 28.8635 69.0669 29.0631 69.3685 29.163C69.3685 30.8602 69.268 32.4576 69.1675 34.1548C68.7653 34.8537 69.5696 35.253 70.1728 35.253H70.2733C70.9771 35.253 72.7867 34.9535 72.8872 33.9551C73.0883 31.9584 73.0883 29.9617 73.0883 27.9649C74.5963 26.3675 75.8027 24.5705 76.9086 22.6736C77.6123 24.0713 78.316 25.469 78.8187 26.9666C79.623 29.5623 81.0304 31.9584 81.8347 34.5542C82.3374 36.2514 86.0571 35.253 85.5545 33.5558C84.6497 30.96 83.3427 28.564 82.4379 25.9682Z" fill="white"/>
<path d="M104.857 21.5771C104.656 20.7784 103.55 20.7784 102.645 20.8782C102.645 20.5787 102.645 20.2792 102.645 19.8799C102.545 17.384 102.444 14.7882 102.243 12.2923C102.042 9.99602 100.735 9.09749 98.4228 9.19733C96.1105 9.29716 93.3961 9.69651 91.2849 10.4952C88.7715 11.4936 87.364 13.2906 86.9619 15.8864C86.4592 18.7817 87.163 21.7768 87.364 24.672C87.4646 27.9667 87.4646 31.3611 87.4646 34.6557C87.4646 35.1549 91.1843 34.6557 91.1843 33.6574C91.1843 31.0616 91.1843 28.366 91.1843 25.7702C91.1843 24.9716 91.1843 24.2727 91.0838 23.474C92.3907 22.875 94.6025 23.474 95.9094 23.5738C97.0153 23.6737 98.0206 23.3742 99.026 23.2743C99.026 25.4707 99.1265 27.6671 99.227 29.8636C99.227 30.9618 99.7297 33.258 98.9254 34.1565C98.5233 34.6557 100.333 34.4561 100.433 34.4561C101.238 34.3562 102.143 34.0567 102.645 33.4577C103.55 32.3595 103.047 29.8636 103.047 28.5657C102.947 26.7686 102.947 24.9716 102.947 23.1745C103.852 23.0747 105.058 22.3758 104.857 21.5771ZM90.9833 21.3774C90.8827 20.1794 90.7822 18.9813 90.6817 17.7833C90.4806 15.5869 90.7822 12.4919 92.8934 11.1941C93.4966 10.7947 94.5019 10.8946 95.1051 10.7947C96.01 10.595 97.0153 10.3954 97.8196 10.9944C98.9254 11.7931 98.7244 14.4887 98.7244 15.5869C98.7244 17.4838 98.9254 19.3807 99.026 21.2776C98.5233 21.3774 97.9201 21.3774 97.4174 21.3774C95.2057 21.2776 92.9939 20.9781 90.9833 21.3774Z" fill="white"/>
<path d="M30.9646 10.3954C31.4672 10.3954 31.9699 10.1957 32.372 9.89618C32.4726 9.79634 32.5731 9.79634 32.5731 9.69651C33.0758 9.397 33.4779 8.89781 33.2769 8.39863C32.7742 7.40026 32.8747 6.30205 32.8747 5.20385C32.8747 4.30532 31.9699 4.00581 31.1656 4.10564C30.4619 4.20548 29.0544 4.70466 29.0544 5.50336C29.0544 6.40189 28.9539 7.40026 29.155 8.29879C29.155 8.39863 29.0544 8.49846 29.0544 8.5983C28.9539 8.79797 29.0544 8.99765 29.155 9.19732V9.29716C29.155 9.39699 29.155 9.49683 29.155 9.59667C29.2555 9.79634 29.356 9.99602 29.5571 10.0959C30.0598 10.3954 30.5624 10.3954 30.9646 10.3954Z" fill="white"/>
</svg>
