<svg width="768" height="25" viewBox="0 0 768 25" fill="none" xmlns="http://www.w3.org/2000/svg">
<path d="M749.784 0.443115C740.142 0.443115 740.142 10.3308 730.567 10.3308C720.992 10.3308 720.925 0.443115 711.35 0.443115C701.776 0.443115 701.709 10.3308 692.134 10.3308C682.492 10.3308 682.492 0.443115 672.85 0.443115C663.209 0.443115 663.209 10.3308 653.634 10.3308C643.992 10.3308 643.992 0.443115 634.417 0.443115C624.776 0.443115 624.776 10.3308 615.201 10.3308C605.626 10.3308 605.358 0.443115 595.783 0.443115C586.142 0.443115 586.142 10.3308 576.567 10.3308C566.992 10.3308 566.858 0.443115 557.283 0.443115C547.642 0.443115 547.642 10.3308 538.067 10.3308C528.425 10.3308 528.425 0.443115 518.783 0.443115C509.142 0.443115 509.142 10.3308 499.567 10.3308C489.925 10.3308 489.925 0.443115 480.35 0.443115C470.776 0.443115 470.642 10.3308 461 10.3308C451.358 10.3308 451.358 0.443115 441.783 0.443115C432.142 0.443115 432.142 10.3308 422.567 10.3308C412.925 10.3308 412.925 0.443115 403.283 0.443115C393.642 0.443115 393.642 10.3308 384.067 10.3308C374.425 10.3308 374.425 0.443115 364.85 0.443115C355.209 0.443115 355.209 10.3308 345.634 10.3308C335.992 10.3308 335.992 0.443115 326.417 0.443115C316.776 0.443115 316.776 10.3308 307.134 10.3308C297.492 10.3308 297.492 0.443115 287.85 0.443115C278.209 0.443115 278.209 10.3308 268.567 10.3308C258.925 10.3308 258.925 0.443115 249.283 0.443115C239.642 0.443115 239.642 10.3308 230 10.3308C220.358 10.3308 220.358 0.443115 210.717 0.443115C201.075 0.443115 201.075 10.3308 191.433 10.3308C181.791 10.3308 181.791 0.443115 172.15 0.443115C162.508 0.443115 162.508 10.3308 152.933 10.3308C143.291 10.3308 143.291 0.443115 133.65 0.443115C124.008 0.443115 124.008 10.3308 114.366 10.3308C104.724 10.3308 104.724 0.443115 95.0826 0.443115C85.4409 0.443115 85.4409 10.3308 75.7991 10.3308C66.1574 10.3308 66.1574 0.443115 56.5157 0.443115C47.1417 0.443115 47.1417 10.3308 37.5 10.3308C27.8583 10.3308 27.8583 0.443115 18.2835 0.443115C8.7087 0.443115 8.64174 10.3308 -1 10.3308V24.4561H769V10.3308C759.358 10.3308 759.358 0.443115 749.784 0.443115Z" fill="white"/>
</svg>
