<svg width="768" height="18" viewBox="0 0 768 18" fill="none" xmlns="http://www.w3.org/2000/svg">
<path d="M770 17.7865C763.958 17.7865 760.803 14.3847 758.252 11.6484C755.97 9.20797 754.292 7.4331 750.734 7.4331C747.109 7.4331 745.497 9.20797 743.215 11.6484C740.664 14.3847 737.509 17.7865 731.467 17.7865C725.425 17.7865 722.27 14.3847 719.719 11.6484C717.437 9.20797 715.759 7.4331 712.201 7.4331C708.643 7.4331 706.964 9.20797 704.682 11.6484C702.131 14.3847 698.976 17.7865 692.934 17.7865C686.892 17.7865 683.737 14.3847 681.186 11.6484C678.904 9.20797 677.226 7.4331 673.668 7.4331C670.043 7.4331 668.432 9.20797 666.149 11.6484C663.598 14.3847 660.443 17.7865 654.401 17.7865C648.36 17.7865 645.205 14.3847 642.654 11.6484C640.371 9.20797 638.693 7.4331 635.135 7.4331C631.51 7.4331 629.899 9.20797 627.616 11.6484C624.797 14.3847 621.642 17.7865 615.6 17.7865C609.558 17.7865 606.403 14.3847 603.852 11.6484C601.57 9.20797 599.891 7.4331 596.334 7.4331C592.708 7.4331 591.097 9.20797 588.815 11.6484C586.264 14.3847 583.109 17.7865 577.067 17.7865C571.025 17.7865 567.87 14.3847 565.319 11.6484C563.037 9.20797 561.359 7.4331 557.801 7.4331C554.176 7.4331 552.565 9.20797 550.282 11.6484C547.597 14.3847 544.442 17.7865 538.4 17.7865C532.358 17.7865 529.203 14.3847 526.652 11.6484C524.37 9.20797 522.691 7.4331 519.134 7.4331C515.508 7.4331 513.897 9.20797 511.615 11.6484C509.064 14.3847 505.909 17.7865 499.867 17.7865C493.825 17.7865 490.67 14.3847 488.119 11.6484C485.837 9.20797 484.159 7.4331 480.601 7.4331C477.043 7.4331 475.365 9.20797 473.082 11.6484C470.464 14.3847 467.242 17.7865 461.2 17.7865C455.158 17.7865 452.003 14.3847 449.452 11.6484C447.17 9.20797 445.491 7.4331 441.934 7.4331C438.309 7.4331 436.697 9.20797 434.415 11.6484C431.864 14.3847 428.709 17.7865 422.667 17.7865C416.625 17.7865 413.47 14.3847 410.919 11.6484C408.637 9.20797 406.959 7.4331 403.401 7.4331C399.776 7.4331 398.165 9.20797 395.882 11.6484C393.331 14.3847 390.176 17.7865 384.134 17.7865C378.093 17.7865 374.937 14.3847 372.386 11.6484C370.104 9.20797 368.426 7.4331 364.868 7.4331C361.31 7.4331 359.632 9.20797 357.349 11.6484C354.798 14.3847 351.643 17.7865 345.601 17.7865C339.56 17.7865 336.405 14.3847 333.854 11.6484C331.571 9.20797 329.893 7.4331 326.335 7.4331C322.71 7.4331 321.099 9.20797 318.816 11.6484C316.265 14.3847 313.11 17.7865 307.069 17.7865C301.027 17.7865 297.872 14.3847 295.321 11.6484C293.038 9.20797 291.36 7.4331 287.802 7.4331C284.177 7.4331 282.566 9.20797 280.283 11.6484C277.733 14.3847 274.577 17.7865 268.536 17.7865C262.494 17.7865 259.339 14.3847 256.788 11.6484C254.505 9.20797 252.827 7.4331 249.269 7.4331C245.644 7.4331 244.033 9.20797 241.751 11.6484C239.2 14.3847 236.045 17.7865 230.003 17.7865C223.961 17.7865 220.806 14.3847 218.255 11.6484C215.973 9.20797 214.294 7.4331 210.736 7.4331C207.178 7.4331 205.5 9.20797 203.218 11.6484C200.667 14.3847 197.512 17.7865 191.47 17.7865C185.428 17.7865 182.273 14.3847 179.722 11.6484C177.44 9.20797 175.761 7.4331 172.203 7.4331C168.578 7.4331 166.967 9.20797 164.685 11.6484C162.134 14.3847 158.979 17.7865 152.937 17.7865C146.895 17.7865 143.74 14.3847 141.189 11.6484C138.907 9.20797 137.229 7.4331 133.671 7.4331C130.046 7.4331 128.434 9.20797 126.152 11.6484C123.601 14.3847 120.446 17.7865 114.404 17.7865C108.362 17.7865 105.207 14.3847 102.656 11.6484C100.374 9.20797 98.6956 7.4331 95.1377 7.4331C91.5127 7.4331 89.9016 9.20797 87.6191 11.6484C84.464 14.3847 81.2417 17.7865 75.2 17.7865C69.1583 17.7865 66.0031 14.3847 63.4522 11.6484C61.1697 9.20797 59.4915 7.4331 55.9336 7.4331C52.3085 7.4331 50.6974 9.20797 48.415 11.6484C45.864 14.3847 42.7089 17.7865 36.6671 17.7865C30.6254 17.7865 27.4703 14.3847 24.9193 11.6484C22.5697 9.20797 20.8915 7.4331 17.3336 7.4331C13.7085 7.4331 12.0974 9.20797 9.81496 11.6484C7.19687 14.3847 4.04174 17.7865 -2 17.7865V11.1307C1.62504 11.1307 3.23617 9.35587 5.51861 6.91543C8.06956 4.17917 11.2247 0.777344 17.3336 0.777344C23.3753 0.777344 26.5304 4.17917 29.0814 6.91543C31.3638 9.35587 33.0421 11.1307 36.6 11.1307C40.225 11.1307 41.8362 9.35587 44.1186 6.91543C46.6696 4.17917 49.8918 0.777344 55.9336 0.777344C61.9753 0.777344 65.1304 4.17917 67.6814 6.91543C69.9638 9.35587 71.6421 11.1307 75.2 11.1307C78.825 11.1307 80.4362 9.35587 82.7186 6.91543C85.2696 4.17917 88.4247 0.777344 94.4664 0.777344C100.508 0.777344 103.663 4.17917 106.214 6.91543C108.497 9.35587 110.175 11.1307 113.733 11.1307C117.358 11.1307 118.969 9.35587 121.251 6.91543C123.802 4.17917 126.958 0.777344 132.999 0.777344C139.041 0.777344 142.196 4.17917 144.747 6.91543C147.03 9.35587 148.708 11.1307 152.266 11.1307C155.891 11.1307 157.502 9.35587 159.784 6.91543C162.335 4.17917 165.49 0.777344 171.532 0.777344C177.574 0.777344 180.729 4.17917 183.28 6.91543C185.562 9.35587 187.241 11.1307 190.799 11.1307C194.424 11.1307 196.035 9.35587 198.317 6.91543C200.868 4.17917 204.023 0.777344 210.065 0.777344C216.107 0.777344 219.262 4.17917 221.813 6.91543C224.095 9.35587 225.774 11.1307 229.331 11.1307C232.957 11.1307 234.568 9.35587 236.85 6.91543C239.401 4.17917 242.556 0.777344 248.598 0.777344C254.64 0.777344 257.795 4.17917 260.346 6.91543C262.628 9.35587 264.306 11.1307 267.864 11.1307C271.422 11.1307 273.101 9.35587 275.383 6.91543C277.934 4.17917 281.089 0.777344 287.131 0.777344C293.173 0.777344 296.328 4.17917 298.879 6.91543C301.161 9.35587 302.839 11.1307 306.397 11.1307C310.022 11.1307 311.633 9.35587 313.916 6.91543C316.467 4.17917 319.622 0.777344 325.664 0.777344C331.705 0.777344 334.861 4.17917 337.411 6.91543C339.694 9.35587 341.372 11.1307 344.93 11.1307C348.555 11.1307 350.166 9.35587 352.449 6.91543C355 4.17917 358.155 0.777344 364.197 0.777344C370.238 0.777344 373.393 4.17917 375.944 6.91543C378.227 9.35587 379.905 11.1307 383.463 11.1307C387.088 11.1307 388.699 9.35587 390.982 6.91543C393.533 4.17917 396.688 0.777344 402.729 0.777344C408.771 0.777344 411.926 4.17917 414.477 6.91543C416.76 9.35587 418.438 11.1307 421.996 11.1307C425.621 11.1307 427.232 9.35587 429.514 6.91543C432.065 4.17917 435.221 0.777344 441.262 0.777344C447.304 0.777344 450.459 4.17917 453.01 6.91543C455.293 9.35587 456.971 11.1307 460.529 11.1307C464.154 11.1307 465.765 9.35587 468.047 6.91543C470.598 4.17917 473.753 0.777344 479.795 0.777344C485.837 0.777344 488.992 4.17917 491.543 6.91543C493.825 9.35587 495.504 11.1307 499.062 11.1307C502.687 11.1307 504.298 9.35587 506.58 6.91543C509.131 4.17917 512.286 0.777344 518.328 0.777344C524.37 0.777344 527.525 4.17917 530.076 6.91543C532.358 9.35587 534.036 11.1307 537.594 11.1307C541.219 11.1307 542.831 9.35587 545.113 6.91543C548.47 4.17917 551.625 0.777344 557.734 0.777344C563.775 0.777344 566.93 4.17917 569.481 6.91543C571.764 9.35587 573.442 11.1307 577 11.1307C580.558 11.1307 582.236 9.35587 584.519 6.91543C587.07 4.17917 590.225 0.777344 596.266 0.777344C602.308 0.777344 605.463 4.17917 608.014 6.91543C610.297 9.35587 611.975 11.1307 615.533 11.1307C619.091 11.1307 620.769 9.35587 623.051 6.91543C625.67 4.17917 628.825 0.777344 634.934 0.777344C641.042 0.777344 644.13 4.17917 646.681 6.91543C648.964 9.35587 650.642 11.1307 654.2 11.1307C657.758 11.1307 659.436 9.35587 661.719 6.91543C664.27 4.17917 667.425 0.777344 673.466 0.777344C679.508 0.777344 682.663 4.17917 685.214 6.91543C687.497 9.35587 689.175 11.1307 692.733 11.1307C696.358 11.1307 697.969 9.35587 700.251 6.91543C702.802 4.17917 705.958 0.777344 711.999 0.777344C718.041 0.777344 721.196 4.17917 723.747 6.91543C726.03 9.35587 727.708 11.1307 731.266 11.1307C734.824 11.1307 736.502 9.35587 738.784 6.91543C741.335 4.17917 744.49 0.777344 750.532 0.777344C756.574 0.777344 759.729 4.17917 762.28 6.91543C764.562 9.35587 766.241 11.1307 769.799 11.1307V17.7865H770Z" fill="#F1F1F1"/>
</svg>
