<svg width="55" height="24" viewBox="0 0 55 24" fill="none" xmlns="http://www.w3.org/2000/svg">
<path d="M40.9467 6.70515C37.307 5.71324 33.0607 5.01889 28.41 5.01889C25.478 5.01889 22.8493 5.21728 20.625 5.61404L13.75 0.952026H0.10114L5.9651 7.10191H14.4577C9.80697 8.68898 7.58272 10.5736 7.58272 10.5736V14.3429C7.58272 14.3429 9.90811 16.2275 14.5588 17.8146H5.86396L0 23.9645H13.6489L20.5239 19.3025C22.8492 19.6992 25.3768 19.8976 28.3088 19.8976C32.8585 19.8976 37.1048 19.2033 40.8456 18.2114C39.6324 16.4259 38.9246 14.5413 38.9246 12.3591C39.0257 10.3752 39.8346 8.4906 40.9467 6.70515Z" fill="#63D1BB"/>
<path d="M44.4853 7.6969C43.171 9.28395 42.4633 10.871 42.4633 12.4581C42.4633 14.0451 43.171 15.6322 44.4853 17.2192C50.9559 15.037 55 12.4581 55 12.4581C55 12.4581 50.9559 9.8791 44.4853 7.6969Z" fill="#63D1BB"/>
</svg>
