<svg width="33" height="39" viewBox="0 0 33 39" fill="none" xmlns="http://www.w3.org/2000/svg">
<path d="M16.5 38.8862C25.575 38.8862 33 31.5274 33 22.5333C23.925 22.5333 16.5 29.7899 16.5 38.8862ZM4.74375 17.5252C4.74375 20.0804 6.80625 22.0223 9.28125 22.0223C10.2094 22.0223 11.1375 21.7157 11.8594 21.2047V21.5113C11.8594 24.0664 13.9219 26.0083 16.3969 26.0083C18.975 26.0083 20.9344 23.9642 20.9344 21.5113V21.2047C21.6562 21.7157 22.5844 22.0223 23.5125 22.0223C26.0906 22.0223 28.05 19.9782 28.05 17.5252C28.05 15.6855 27.0188 14.1525 25.4719 13.437C27.0188 12.7216 28.05 11.1885 28.05 9.34879C28.05 6.79365 25.9875 4.85174 23.5125 4.85174C22.5844 4.85174 21.6562 5.15836 20.9344 5.66939V5.36277C20.9344 2.80763 18.8719 0.865723 16.3969 0.865723C13.8188 0.865723 11.8594 2.90984 11.8594 5.36277V5.66939C11.1375 5.15836 10.2094 4.85174 9.28125 4.85174C6.70312 4.85174 4.74375 6.89586 4.74375 9.34879C4.74375 11.1885 5.775 12.7216 7.32188 13.437C5.87813 14.1525 4.74375 15.6855 4.74375 17.5252ZM16.5 8.83777C19.0781 8.83777 21.0375 10.8819 21.0375 13.3348C21.0375 15.89 18.975 17.8319 16.5 17.8319C13.9219 17.8319 11.9625 15.7878 11.9625 13.3348C11.9625 10.8819 13.9219 8.83777 16.5 8.83777ZM0 22.5333C0 31.5274 7.425 38.8862 16.5 38.8862C16.5 29.7899 9.075 22.5333 0 22.5333Z" fill="#63D1BB"/>
</svg>
