<svg width="35" height="35" viewBox="0 0 35 35" fill="none" xmlns="http://www.w3.org/2000/svg">
<path d="M0.305557 14.8282C-0.101852 16.9069 -0.101852 18.9856 0.305557 21.0642L4.48151 17.8967L0.305557 14.8282Z" fill="#63D1BB"/>
<path d="M24.8521 2.45476C19.9631 0.277113 14.2593 0.277113 9.26855 2.8507L16.9075 8.3938L24.8521 2.45476Z" fill="#63D1BB"/>
<path d="M34.528 13.9369L29.6391 17.5994L34.6299 21.2618C35.1391 18.8862 35.1391 16.3125 34.528 13.9369Z" fill="#63D1BB"/>
<path d="M9.37048 32.9423C14.2594 35.4169 20.2687 35.6149 25.3614 33.0412L17.1113 27.0032L9.37048 32.9423Z" fill="#63D1BB"/>
<path d="M8.04639 15.1245L1.73151 10.5712C1.42595 11.2641 1.12039 11.957 0.916687 12.6499L6.31489 16.6093L8.04639 15.1245Z" fill="#63D1BB"/>
<path d="M18.9446 25.7162L27.3984 31.8531C27.7039 31.6552 28.0095 31.4572 28.2132 31.2593C28.5187 31.0613 28.8243 30.7643 29.1299 30.4674L20.6761 24.3304L18.9446 25.7162Z" fill="#63D1BB"/>
<path d="M11.6112 12.4522L4.07408 7.00806C3.56482 7.50298 3.15741 8.09689 2.75 8.6908L9.77783 13.838L11.6112 12.4522Z" fill="#63D1BB"/>
<path d="M22.5094 23.0434L30.7594 29.0814C31.2687 28.5865 31.6761 27.9926 32.0835 27.3987L24.2409 21.6576L22.5094 23.0434Z" fill="#63D1BB"/>
<path d="M15.176 9.77791L7.33336 4.03687C7.12966 4.13585 6.92595 4.33382 6.72225 4.4328C6.31484 4.72975 5.90743 5.0267 5.60187 5.42263L13.4445 11.0647L15.176 9.77791Z" fill="#63D1BB"/>
<path d="M26.0743 20.2718L33.204 25.4193C33.5095 24.7264 33.8151 24.1324 34.1206 23.4395L27.9076 18.886L26.0743 20.2718Z" fill="#63D1BB"/>
<path d="M26.8891 3.54211L0.916687 23.24C1.12039 23.9329 1.42595 24.6258 1.73151 25.3187L28.7225 4.82891C28.2132 4.33399 27.6021 3.93805 26.8891 3.54211Z" fill="#63D1BB"/>
<path d="M31.2688 7.40377C30.9632 7.00783 30.6576 6.61189 30.3521 6.31494L2.85187 27.1017C3.05557 27.5966 3.36113 27.9925 3.66669 28.2895C3.76854 28.4875 3.97225 28.6854 4.0741 28.7844L31.778 7.99768C31.5743 7.79971 31.4725 7.60174 31.2688 7.40377Z" fill="#63D1BB"/>
<path d="M32.8984 9.77954L5.70374 30.3682C6.213 30.8632 6.82412 31.3581 7.43523 31.754L33.9169 11.7592C33.6114 11.0663 33.3058 10.3734 32.8984 9.77954Z" fill="#63D1BB"/>
</svg>
