<svg width="33" height="33" viewBox="0 0 33 33" fill="none" xmlns="http://www.w3.org/2000/svg">
<path d="M3.02752 32.0518H15.6422V18.316H3.02752V32.0518ZM31.3853 8.73058H24.0183C24.5229 8.43412 25.0275 8.23648 25.4312 7.94003C27.0459 6.85302 27.8532 5.37075 27.8532 3.98729C27.8532 2.80146 27.2477 1.81327 26.4404 1.12154C25.633 0.429811 24.5229 0.0345459 23.4128 0.0345459C22.2018 0.0345459 20.9908 0.429811 20.0826 1.12154C18.5688 2.10973 17.4587 3.59201 16.6514 5.17311C16.6514 5.27192 16.5505 5.37074 16.5505 5.37074C16.2477 4.77783 15.945 4.18492 15.5413 3.592C14.8349 2.60382 14.0275 1.71445 13.0183 1.12154C12.0092 0.528629 10.8991 0.0345459 9.68807 0.0345459C8.47706 0.0345459 7.36697 0.528642 6.45871 1.31919C5.65137 2.10974 5.04587 3.19673 5.04587 4.38256C5.04587 5.07428 5.2477 5.86483 5.65137 6.55656C6.25687 7.44593 7.06422 8.13767 8.27523 8.73058H1.61467C0.706413 8.73058 0 9.4223 0 10.3117V16.142H15.5413V8.73058H17.4587V16.142H33V10.3117C33 9.4223 32.2936 8.73058 31.3853 8.73058ZM8.88073 6.45775C8.27522 6.06248 7.87155 5.6672 7.66972 5.37074C7.46788 4.97547 7.36696 4.67901 7.36696 4.38256C7.36696 3.88846 7.56881 3.39437 8.0734 2.90028C8.47707 2.505 9.08256 2.20855 9.68807 2.20855C10.3945 2.20855 11.1009 2.40618 11.7064 2.90028C12.7156 3.59201 13.7248 4.67901 14.3303 6.06247C14.633 6.7542 14.9358 7.44593 15.1376 8.13766C12.0092 7.84121 9.99082 7.14948 8.88073 6.45775ZM19.4771 4.87665C20.0826 4.0861 20.6881 3.39438 21.3945 2.9991C22.1009 2.50501 22.8073 2.30737 23.4128 2.30737C24.0183 2.30737 24.5229 2.50501 24.9266 2.80147C25.3303 3.09792 25.5321 3.49319 25.5321 3.98729C25.5321 4.48138 25.2294 5.27192 24.0183 6.06247C22.9083 6.85302 20.8899 7.74239 17.8624 8.3353C18.1651 7.14947 18.7706 5.86483 19.4771 4.87665ZM17.4587 32.0518H30.0734V18.316H17.4587V32.0518Z" fill="#63D1BB"/>
</svg>
