<svg width="47" height="28" viewBox="0 0 47 28" fill="none" xmlns="http://www.w3.org/2000/svg">
<path d="M43.0665 0.950195H3.93347C1.71459 0.950195 0 2.63244 0 4.80945V24.1057C0 26.2827 1.71459 27.965 3.93347 27.965H43.0665C45.2854 27.965 47 26.2827 47 24.1057V4.80945C47 2.73139 45.1845 0.950195 43.0665 0.950195ZM3.02575 25.689V3.72094H43.5708V25.689H3.02575Z" fill="#63D1BB"/>
<path d="M6.95926 21.83H39.6374V7.58057H6.95926V21.83ZM23.5 9.4607C26.4249 9.4607 28.8455 11.8356 28.8455 14.7053C28.8455 17.5749 26.4249 19.9498 23.5 19.9498C20.5751 19.9498 18.1545 17.5749 18.1545 14.7053C18.1545 11.7366 20.5751 9.4607 23.5 9.4607Z" fill="#63D1BB"/>
</svg>
